<?xml version="1.0" standalone="no"?>
<!DOCTYPE svg PUBLIC "-//W3C//DTD SVG 20010904//EN"
 "http://www.w3.org/TR/2001/REC-SVG-20010904/DTD/svg10.dtd">
<svg version="1.0" xmlns="http://www.w3.org/2000/svg"
 width="700.000000pt" height="700.000000pt" viewBox="0 0 700.000000 700.000000"
 preserveAspectRatio="xMidYMid meet">
<metadata>
Created by potrace 1.11, written by Peter Selinger 2001-2013
</metadata>
<g transform="translate(0.000000,700.000000) scale(0.100000,-0.100000)"
fill="#000000" stroke="none">
<path d="M2704 6986 c-17 -8 -42 -31 -55 -52 l-24 -39 0 -1915 0 -1915 1917 0
c1857 0 1918 1 1952 19 20 11 42 34 52 55 16 34 17 159 17 1897 l0 1861 -22
36 c-45 73 120 67 -1948 67 -1537 -1 -1863 -3 -1889 -14z"/>
<path d="M784 3060 c-52 -7 -89 -31 -111 -73 -16 -30 -17 -98 -17 -907 1 -972
-3 -924 67 -965 31 -19 58 -20 967 -20 l935 -1 0 977 c0 538 -3 981 -7 985 -9
8 -1772 12 -1834 4z"/>
<path d="M2631 1080 c-4 -8 -7 -229 -6 -490 1 -526 0 -513 67 -562 l33 -23
434 -3 c422 -3 435 -2 477 18 31 16 48 33 63 63 19 40 20 62 20 466 0 397 -1
427 -19 462 -11 20 -36 47 -57 60 l-37 23 -484 1 c-421 0 -485 -2 -491 -15z"/>
</g>
</svg>
